<?xml version="1.0" encoding="UTF-8" standalone="no"?>
<!-- Created with Inkscape (http://www.inkscape.org/) -->

<svg
   xmlns:dc="http://purl.org/dc/elements/1.1/"
   xmlns:cc="http://creativecommons.org/ns#"
   xmlns:rdf="http://www.w3.org/1999/02/22-rdf-syntax-ns#"
   xmlns:svg="http://www.w3.org/2000/svg"
   xmlns="http://www.w3.org/2000/svg"
   xmlns:sodipodi="http://sodipodi.sourceforge.net/DTD/sodipodi-0.dtd"
   xmlns:inkscape="http://www.inkscape.org/namespaces/inkscape"
   width="121.00278mm"
   height="25.752769mm"
   viewBox="0 0 428.74999 91.24997"
   id="svg2"
   version="1.1"
   inkscape:version="0.91 r13725"
   sodipodi:docname="bitlair-v2.svg">
  <defs
     id="defs4" />
  <sodipodi:namedview
     id="base"
     pagecolor="#ffffff"
     bordercolor="#666666"
     borderopacity="1.0"
     inkscape:pageopacity="0.0"
     inkscape:pageshadow="2"
     inkscape:zoom="1.4"
     inkscape:cx="-68.20535"
     inkscape:cy="88.555897"
     inkscape:document-units="px"
     inkscape:current-layer="layer1"
     showgrid="false"
     fit-margin-top="0"
     fit-margin-left="0"
     fit-margin-right="0"
     fit-margin-bottom="0"
     inkscape:window-width="1920"
     inkscape:window-height="1051"
     inkscape:window-x="0"
     inkscape:window-y="29"
     inkscape:window-maximized="1" />
  <metadata
     id="metadata7">
    <rdf:RDF>
      <cc:Work
         rdf:about="">
        <dc:format>image/svg+xml</dc:format>
        <dc:type
           rdf:resource="http://purl.org/dc/dcmitype/StillImage" />
        <dc:title />
      </cc:Work>
    </rdf:RDF>
  </metadata>
  <g
     inkscape:label="Layer 1"
     inkscape:groupmode="layer"
     id="layer1"
     transform="translate(0,-958.61133)">
    <path
       style="fill:#fc5d1d;fill-opacity:1"
       d="m 0,958.61133 0,16.25 8.125,0 8.125,0 0,-8.125 0,-8.125 -16.25,0 z m 0,18.75 0,16.25 8.125,0 8.125,0 0,-8.125 0,-8.125 -8.125,0 -8.125,0 z m 112.5,0 0,8.125 0,8.125 8.125,0 8.125,0 0,-8.125 0,-8.125 -8.125,0 -8.125,0 z m 75,0 0,8.125 0,8.125 8.125,0 8.125,0 0,-8.125 0,-8.125 -8.125,0 -8.125,0 z m -187.5,18.75 0,9.37497 0,6.875 8.125,0 8.125,0 0,-8.125 0,-8.12497 -8.125,0 -8.125,0 z m 18.75,0 0,8.12497 0,8.125 8.125,0 8.125,0 0,-8.125 0,-8.12497 -8.125,0 -8.125,0 z m 18.75,0 0,8.12497 0,8.125 8.125,0 8.125,0 0,-8.125 0,-8.12497 -8.125,0 -8.125,0 z m 37.5,0 0,8.12497 0,8.125 8.125,0 8.125,0 0,-8.125 0,-8.12497 -8.125,0 -8.125,0 z m 37.5,0 0,8.12497 0,8.125 8.125,0 8.125,0 0,-8.125 0,-8.12497 -8.125,0 -8.125,0 z m 18.75,0 0,8.12497 0,8.125 8.125,0 8.125,0 0,-8.125 0,-8.12497 -8.125,0 -8.125,0 z m 56.25,0 0,8.12497 0,8.125 8.125,0 8.125,0 0,-8.125 0,-8.12497 -8.125,0 -8.125,0 z m 93.75,0 0,8.12497 0,8.125 8.125,0 8.125,0 0,-8.125 0,-8.12497 -8.125,0 -8.125,0 z m 56.25,0 0,8.12497 0,8.125 8.125,0 8.125,0 0,-8.125 0,-8.12497 -8.125,0 -8.125,0 z m 56.25,0 0,8.12497 0,8.125 8.125,0 8.125,0 0,-8.125 0,-8.12497 -8.125,0 -8.125,0 z m 18.75,0 0,8.12497 0,8.125 8.125,0 8.125,0 0,-8.125 0,-8.12497 -8.125,0 -8.125,0 z M 0,1014.8613 l 0,16.25 8.125,0 8.125,0 0,-8.125 0,-8.125 -8.125,0 -8.125,0 z m 37.5,0 0,8.125 0,8.125 8.125,0 8.125,0 0,-8.125 0,-8.125 -8.125,0 -8.125,0 z m 37.5,0 0,8.125 0,8.125 8.125,0 8.125,0 0,-8.125 0,-8.125 -8.125,0 -8.125,0 z m 37.5,0 0,8.125 0,8.125 8.125,0 8.125,0 0,-8.125 0,-8.125 -8.125,0 -8.125,0 z m 75,0 0,8.125 0,8.125 8.125,0 8.125,0 0,-8.125 0,-8.125 -8.125,0 -8.125,0 z m 112.5,0 0,8.125 0,8.125 8.125,0 8.125,0 0,-8.125 0,-8.125 -8.125,0 -8.125,0 z m 37.5,0 0,8.125 0,8.125 8.125,0 8.125,0 0,-8.125 0,-8.125 -8.125,0 -8.125,0 z m 37.5,0 0,8.125 0,8.125 8.125,0 8.125,0 0,-8.125 0,-8.125 -8.125,0 -8.125,0 z m -375,18.75 0,16.25 8.125,0 8.125,0 0,-8.125 0,-8.125 -8.125,0 -8.125,0 z m 18.75,0 0,8.125 0,8.125 8.125,0 8.125,0 0,-8.125 0,-8.125 -8.125,0 -8.125,0 z m 18.75,0 0,8.125 0,8.125 8.125,0 8.125,0 0,-8.125 0,-8.125 -8.125,0 -8.125,0 z m 37.5,0 0,8.125 0,8.125 8.125,0 8.125,0 0,-8.125 0,-8.125 -8.125,0 -8.125,0 z m 56.25,0 0,8.125 0,8.125 8.125,0 8.125,0 0,-8.125 0,-8.125 -8.125,0 -8.125,0 z m 18.75,0 0,8.125 0,8.125 8.125,0 8.125,0 0,-8.125 0,-8.125 -8.125,0 -8.125,0 z m 56.25,0 0,8.125 0,8.125 8.125,0 8.125,0 0,-8.125 0,-8.125 -8.125,0 -8.125,0 z m 18.75,0 0,8.125 0,8.125 8.125,0 8.125,0 0,-8.125 0,-8.125 -8.125,0 -8.125,0 z m 37.5,0 0,8.125 0,8.125 8.125,0 8.125,0 0,-8.125 0,-8.125 -8.125,0 -8.125,0 z m 18.75,0 0,8.125 0,8.125 8.125,0 8.125,0 0,-8.125 0,-8.125 -8.125,0 -8.125,0 z m 18.75,0 0,8.125 0,8.125 8.125,0 8.125,0 0,-8.125 0,-8.125 -8.125,0 -8.125,0 z m 37.5,0 0,8.125 0,8.125 8.125,0 8.125,0 0,-8.125 0,-8.125 -8.125,0 -8.125,0 z m 37.5,0 0,8.125 0,8.125 8.125,0 8.125,0 0,-8.125 0,-8.125 -8.125,0 -8.125,0 z"
       id="path4165"
       inkscape:connector-curvature="0" />
  </g>
</svg>
